%TF.GenerationSoftware,KiCad,Pcbnew,6.99.0-unknown-e9f8454a67~154~ubuntu22.04.1*%
%TF.CreationDate,2022-11-04T13:42:14+03:00*%
%TF.ProjectId,siglent-la,7369676c-656e-4742-9d6c-612e6b696361,rev?*%
%TF.SameCoordinates,Original*%
%TF.FileFunction,Paste,Bot*%
%TF.FilePolarity,Positive*%
%FSLAX46Y46*%
G04 Gerber Fmt 4.6, Leading zero omitted, Abs format (unit mm)*
G04 Created by KiCad (PCBNEW 6.99.0-unknown-e9f8454a67~154~ubuntu22.04.1) date 2022-11-04 13:42:14*
%MOMM*%
%LPD*%
G01*
G04 APERTURE LIST*
G04 Aperture macros list*
%AMRoundRect*
0 Rectangle with rounded corners*
0 $1 Rounding radius*
0 $2 $3 $4 $5 $6 $7 $8 $9 X,Y pos of 4 corners*
0 Add a 4 corners polygon primitive as box body*
4,1,4,$2,$3,$4,$5,$6,$7,$8,$9,$2,$3,0*
0 Add four circle primitives for the rounded corners*
1,1,$1+$1,$2,$3*
1,1,$1+$1,$4,$5*
1,1,$1+$1,$6,$7*
1,1,$1+$1,$8,$9*
0 Add four rect primitives between the rounded corners*
20,1,$1+$1,$2,$3,$4,$5,0*
20,1,$1+$1,$4,$5,$6,$7,0*
20,1,$1+$1,$6,$7,$8,$9,0*
20,1,$1+$1,$8,$9,$2,$3,0*%
G04 Aperture macros list end*
%ADD10RoundRect,0.381000X-0.381000X0.762000X-0.381000X-0.762000X0.381000X-0.762000X0.381000X0.762000X0*%
%ADD11RoundRect,0.200000X0.275000X-0.200000X0.275000X0.200000X-0.275000X0.200000X-0.275000X-0.200000X0*%
%ADD12RoundRect,0.225000X0.250000X-0.225000X0.250000X0.225000X-0.250000X0.225000X-0.250000X-0.225000X0*%
G04 APERTURE END LIST*
D10*
%TO.C,U8*%
X119000000Y-81960000D03*
X119000000Y-87040000D03*
%TD*%
%TO.C,U7*%
X117000000Y-81960000D03*
X117000000Y-87040000D03*
%TD*%
%TO.C,U6*%
X115000000Y-81960000D03*
X115000000Y-87040000D03*
%TD*%
%TO.C,U5*%
X113000000Y-81960000D03*
X113000000Y-87040000D03*
%TD*%
%TO.C,U4*%
X108500000Y-87080000D03*
X108500000Y-82000000D03*
%TD*%
%TO.C,U3*%
X106500000Y-87040000D03*
X106500000Y-81960000D03*
%TD*%
%TO.C,U2*%
X104500000Y-82000000D03*
X104500000Y-87080000D03*
%TD*%
%TO.C,U1*%
X102500000Y-87080000D03*
X102500000Y-82000000D03*
%TD*%
D11*
%TO.C,R16*%
X119000000Y-74475000D03*
X119000000Y-76125000D03*
%TD*%
%TO.C,R15*%
X119000000Y-79600000D03*
X119000000Y-77950000D03*
%TD*%
%TO.C,R14*%
X117000000Y-74675000D03*
X117000000Y-76325000D03*
%TD*%
%TO.C,R13*%
X117100000Y-78000000D03*
X117100000Y-79650000D03*
%TD*%
%TO.C,R12*%
X115000000Y-74700000D03*
X115000000Y-76350000D03*
%TD*%
%TO.C,R11*%
X115000000Y-79650000D03*
X115000000Y-78000000D03*
%TD*%
%TO.C,R10*%
X113000000Y-74675000D03*
X113000000Y-76325000D03*
%TD*%
%TO.C,R9*%
X113000000Y-79625000D03*
X113000000Y-77975000D03*
%TD*%
%TO.C,R8*%
X108500000Y-76325000D03*
X108500000Y-74675000D03*
%TD*%
%TO.C,R7*%
X108500000Y-78000000D03*
X108500000Y-79650000D03*
%TD*%
%TO.C,R6*%
X106500000Y-74675000D03*
X106500000Y-76325000D03*
%TD*%
%TO.C,R5*%
X106500000Y-78000000D03*
X106500000Y-79650000D03*
%TD*%
%TO.C,R4*%
X104500000Y-76325000D03*
X104500000Y-74675000D03*
%TD*%
%TO.C,R3*%
X104500000Y-79650000D03*
X104500000Y-78000000D03*
%TD*%
%TO.C,R2*%
X102500000Y-74675000D03*
X102500000Y-76325000D03*
%TD*%
%TO.C,R1*%
X102500000Y-78000000D03*
X102500000Y-79650000D03*
%TD*%
D12*
%TO.C,C8*%
X119000000Y-74525000D03*
X119000000Y-76075000D03*
%TD*%
%TO.C,C7*%
X117000000Y-74625000D03*
X117000000Y-76175000D03*
%TD*%
%TO.C,C6*%
X115000000Y-74750000D03*
X115000000Y-76300000D03*
%TD*%
%TO.C,C5*%
X113000000Y-74725000D03*
X113000000Y-76275000D03*
%TD*%
%TO.C,C4*%
X108500000Y-74725000D03*
X108500000Y-76275000D03*
%TD*%
%TO.C,C3*%
X106500000Y-74675000D03*
X106500000Y-76225000D03*
%TD*%
%TO.C,C2*%
X104500000Y-76275000D03*
X104500000Y-74725000D03*
%TD*%
%TO.C,C1*%
X102500000Y-76250000D03*
X102500000Y-74700000D03*
%TD*%
M02*
