%TF.GenerationSoftware,KiCad,Pcbnew,6.99.0-unknown-e9f8454a67~154~ubuntu22.04.1*%
%TF.CreationDate,2022-11-04T13:42:14+03:00*%
%TF.ProjectId,siglent-la,7369676c-656e-4742-9d6c-612e6b696361,rev?*%
%TF.SameCoordinates,Original*%
%TF.FileFunction,Soldermask,Top*%
%TF.FilePolarity,Negative*%
%FSLAX46Y46*%
G04 Gerber Fmt 4.6, Leading zero omitted, Abs format (unit mm)*
G04 Created by KiCad (PCBNEW 6.99.0-unknown-e9f8454a67~154~ubuntu22.04.1) date 2022-11-04 13:42:14*
%MOMM*%
%LPD*%
G01*
G04 APERTURE LIST*
G04 Aperture macros list*
%AMRoundRect*
0 Rectangle with rounded corners*
0 $1 Rounding radius*
0 $2 $3 $4 $5 $6 $7 $8 $9 X,Y pos of 4 corners*
0 Add a 4 corners polygon primitive as box body*
4,1,4,$2,$3,$4,$5,$6,$7,$8,$9,$2,$3,0*
0 Add four circle primitives for the rounded corners*
1,1,$1+$1,$2,$3*
1,1,$1+$1,$4,$5*
1,1,$1+$1,$6,$7*
1,1,$1+$1,$8,$9*
0 Add four rect primitives between the rounded corners*
20,1,$1+$1,$2,$3,$4,$5,0*
20,1,$1+$1,$4,$5,$6,$7,0*
20,1,$1+$1,$6,$7,$8,$9,0*
20,1,$1+$1,$8,$9,$2,$3,0*%
G04 Aperture macros list end*
%ADD10RoundRect,0.381000X-0.381000X0.762000X-0.381000X-0.762000X0.381000X-0.762000X0.381000X0.762000X0*%
%ADD11RoundRect,0.200000X0.275000X-0.200000X0.275000X0.200000X-0.275000X0.200000X-0.275000X-0.200000X0*%
%ADD12R,0.700000X4.300000*%
%ADD13R,0.700000X3.200000*%
%ADD14RoundRect,0.225000X0.250000X-0.225000X0.250000X0.225000X-0.250000X0.225000X-0.250000X-0.225000X0*%
G04 APERTURE END LIST*
D10*
%TO.C,U16*%
X119000000Y-82000000D03*
X119000000Y-87080000D03*
%TD*%
%TO.C,U15*%
X117000000Y-82000000D03*
X117000000Y-87080000D03*
%TD*%
%TO.C,U14*%
X115000000Y-82000000D03*
X115000000Y-87080000D03*
%TD*%
%TO.C,U13*%
X113000000Y-82000000D03*
X113000000Y-87080000D03*
%TD*%
%TO.C,U12*%
X108500000Y-87080000D03*
X108500000Y-82000000D03*
%TD*%
%TO.C,U11*%
X106500000Y-87080000D03*
X106500000Y-82000000D03*
%TD*%
%TO.C,U10*%
X104500000Y-87120000D03*
X104500000Y-82040000D03*
%TD*%
%TO.C,U9*%
X102500000Y-87120000D03*
X102500000Y-82040000D03*
%TD*%
D11*
%TO.C,R32*%
X119000000Y-74675000D03*
X119000000Y-76325000D03*
%TD*%
%TO.C,R31*%
X119000000Y-79650000D03*
X119000000Y-78000000D03*
%TD*%
%TO.C,R30*%
X117000000Y-76325000D03*
X117000000Y-74675000D03*
%TD*%
%TO.C,R29*%
X117000000Y-79650000D03*
X117000000Y-78000000D03*
%TD*%
%TO.C,R28*%
X115000000Y-76325000D03*
X115000000Y-74675000D03*
%TD*%
%TO.C,R27*%
X115000000Y-79650000D03*
X115000000Y-78000000D03*
%TD*%
%TO.C,R26*%
X113000000Y-74675000D03*
X113000000Y-76325000D03*
%TD*%
%TO.C,R25*%
X113000000Y-79650000D03*
X113000000Y-78000000D03*
%TD*%
%TO.C,R24*%
X108500000Y-74675000D03*
X108500000Y-76325000D03*
%TD*%
%TO.C,R23*%
X108500000Y-78040000D03*
X108500000Y-79690000D03*
%TD*%
%TO.C,R22*%
X106500000Y-74675000D03*
X106500000Y-76325000D03*
%TD*%
%TO.C,R21*%
X106500000Y-78040000D03*
X106500000Y-79690000D03*
%TD*%
%TO.C,R20*%
X104500000Y-74675000D03*
X104500000Y-76325000D03*
%TD*%
%TO.C,R19*%
X104500000Y-78000000D03*
X104500000Y-79650000D03*
%TD*%
%TO.C,R18*%
X102500000Y-74625000D03*
X102500000Y-76275000D03*
%TD*%
%TO.C,R17*%
X102500000Y-78000000D03*
X102500000Y-79650000D03*
%TD*%
D12*
%TO.C,J1*%
X101399999Y-66999999D03*
D13*
X102399999Y-67549999D03*
D12*
X103399999Y-66999999D03*
X104399999Y-66999999D03*
X105399999Y-66999999D03*
X106399999Y-66999999D03*
X107399999Y-66999999D03*
X110399999Y-66999999D03*
X111399999Y-66999999D03*
X112399999Y-66999999D03*
X113399999Y-66999999D03*
X114399999Y-66999999D03*
X115399999Y-66999999D03*
X116399999Y-66999999D03*
X117399999Y-66999999D03*
X118399999Y-66999999D03*
X119399999Y-66999999D03*
X120399999Y-66999999D03*
%TD*%
D14*
%TO.C,C16*%
X119000000Y-74650000D03*
X119000000Y-76200000D03*
%TD*%
%TO.C,C15*%
X117000000Y-76275000D03*
X117000000Y-74725000D03*
%TD*%
%TO.C,C14*%
X115000000Y-74675000D03*
X115000000Y-76225000D03*
%TD*%
%TO.C,C13*%
X113000000Y-74725000D03*
X113000000Y-76275000D03*
%TD*%
%TO.C,C12*%
X108500000Y-74725000D03*
X108500000Y-76275000D03*
%TD*%
%TO.C,C11*%
X106500000Y-74725000D03*
X106500000Y-76275000D03*
%TD*%
%TO.C,C10*%
X104500000Y-74725000D03*
X104500000Y-76275000D03*
%TD*%
%TO.C,C9*%
X102500000Y-74725000D03*
X102500000Y-76275000D03*
%TD*%
M02*
