%TF.GenerationSoftware,KiCad,Pcbnew,6.99.0-unknown-e9f8454a67~154~ubuntu22.04.1*%
%TF.CreationDate,2022-11-04T13:42:13+03:00*%
%TF.ProjectId,siglent-la,7369676c-656e-4742-9d6c-612e6b696361,rev?*%
%TF.SameCoordinates,Original*%
%TF.FileFunction,Copper,L1,Top*%
%TF.FilePolarity,Positive*%
%FSLAX46Y46*%
G04 Gerber Fmt 4.6, Leading zero omitted, Abs format (unit mm)*
G04 Created by KiCad (PCBNEW 6.99.0-unknown-e9f8454a67~154~ubuntu22.04.1) date 2022-11-04 13:42:13*
%MOMM*%
%LPD*%
G01*
G04 APERTURE LIST*
G04 Aperture macros list*
%AMRoundRect*
0 Rectangle with rounded corners*
0 $1 Rounding radius*
0 $2 $3 $4 $5 $6 $7 $8 $9 X,Y pos of 4 corners*
0 Add a 4 corners polygon primitive as box body*
4,1,4,$2,$3,$4,$5,$6,$7,$8,$9,$2,$3,0*
0 Add four circle primitives for the rounded corners*
1,1,$1+$1,$2,$3*
1,1,$1+$1,$4,$5*
1,1,$1+$1,$6,$7*
1,1,$1+$1,$8,$9*
0 Add four rect primitives between the rounded corners*
20,1,$1+$1,$2,$3,$4,$5,0*
20,1,$1+$1,$4,$5,$6,$7,0*
20,1,$1+$1,$6,$7,$8,$9,0*
20,1,$1+$1,$8,$9,$2,$3,0*%
G04 Aperture macros list end*
%TA.AperFunction,SMDPad,CuDef*%
%ADD10RoundRect,0.381000X-0.381000X0.762000X-0.381000X-0.762000X0.381000X-0.762000X0.381000X0.762000X0*%
%TD*%
%TA.AperFunction,SMDPad,CuDef*%
%ADD11RoundRect,0.200000X0.275000X-0.200000X0.275000X0.200000X-0.275000X0.200000X-0.275000X-0.200000X0*%
%TD*%
%TA.AperFunction,ConnectorPad*%
%ADD12R,0.700000X4.300000*%
%TD*%
%TA.AperFunction,ConnectorPad*%
%ADD13R,0.700000X3.200000*%
%TD*%
%TA.AperFunction,SMDPad,CuDef*%
%ADD14RoundRect,0.225000X0.250000X-0.225000X0.250000X0.225000X-0.250000X0.225000X-0.250000X-0.225000X0*%
%TD*%
%TA.AperFunction,ViaPad*%
%ADD15C,0.800000*%
%TD*%
%TA.AperFunction,Conductor*%
%ADD16C,0.500000*%
%TD*%
G04 APERTURE END LIST*
D10*
%TO.P,U16,1,center*%
%TO.N,Net-(U16-center)*%
X119000000Y-82000000D03*
%TO.P,U16,2,jacket*%
%TO.N,GND*%
X119000000Y-87080000D03*
%TD*%
%TO.P,U15,1,center*%
%TO.N,Net-(U15-center)*%
X117000000Y-82000000D03*
%TO.P,U15,2,jacket*%
%TO.N,GND*%
X117000000Y-87080000D03*
%TD*%
%TO.P,U14,1,center*%
%TO.N,Net-(U14-center)*%
X115000000Y-82000000D03*
%TO.P,U14,2,jacket*%
%TO.N,GND*%
X115000000Y-87080000D03*
%TD*%
%TO.P,U13,1,center*%
%TO.N,Net-(U13-center)*%
X113000000Y-82000000D03*
%TO.P,U13,2,jacket*%
%TO.N,GND*%
X113000000Y-87080000D03*
%TD*%
%TO.P,U12,2,jacket*%
%TO.N,GND*%
X108500000Y-87080000D03*
%TO.P,U12,1,center*%
%TO.N,Net-(U12-center)*%
X108500000Y-82000000D03*
%TD*%
%TO.P,U11,2,jacket*%
%TO.N,GND*%
X106500000Y-87080000D03*
%TO.P,U11,1,center*%
%TO.N,Net-(U11-center)*%
X106500000Y-82000000D03*
%TD*%
%TO.P,U10,2,jacket*%
%TO.N,GND*%
X104500000Y-87120000D03*
%TO.P,U10,1,center*%
%TO.N,Net-(U10-center)*%
X104500000Y-82040000D03*
%TD*%
%TO.P,U9,2,jacket*%
%TO.N,GND*%
X102500000Y-87120000D03*
%TO.P,U9,1,center*%
%TO.N,Net-(U9-center)*%
X102500000Y-82040000D03*
%TD*%
D11*
%TO.P,R32,2*%
%TO.N,/input15/OUT*%
X119000000Y-74675000D03*
%TO.P,R32,1*%
%TO.N,Net-(C16-Pad1)*%
X119000000Y-76325000D03*
%TD*%
%TO.P,R31,1*%
%TO.N,Net-(U16-center)*%
X119000000Y-79650000D03*
%TO.P,R31,2*%
%TO.N,Net-(C16-Pad1)*%
X119000000Y-78000000D03*
%TD*%
%TO.P,R30,1*%
%TO.N,Net-(C15-Pad1)*%
X117000000Y-76325000D03*
%TO.P,R30,2*%
%TO.N,/input14/OUT*%
X117000000Y-74675000D03*
%TD*%
%TO.P,R29,1*%
%TO.N,Net-(U15-center)*%
X117000000Y-79650000D03*
%TO.P,R29,2*%
%TO.N,Net-(C15-Pad1)*%
X117000000Y-78000000D03*
%TD*%
%TO.P,R28,1*%
%TO.N,Net-(C14-Pad1)*%
X115000000Y-76325000D03*
%TO.P,R28,2*%
%TO.N,/input13/OUT*%
X115000000Y-74675000D03*
%TD*%
%TO.P,R27,1*%
%TO.N,Net-(U14-center)*%
X115000000Y-79650000D03*
%TO.P,R27,2*%
%TO.N,Net-(C14-Pad1)*%
X115000000Y-78000000D03*
%TD*%
%TO.P,R26,2*%
%TO.N,/input12/OUT*%
X113000000Y-74675000D03*
%TO.P,R26,1*%
%TO.N,Net-(C13-Pad1)*%
X113000000Y-76325000D03*
%TD*%
%TO.P,R25,1*%
%TO.N,Net-(U13-center)*%
X113000000Y-79650000D03*
%TO.P,R25,2*%
%TO.N,Net-(C13-Pad1)*%
X113000000Y-78000000D03*
%TD*%
%TO.P,R24,2*%
%TO.N,/input11/OUT*%
X108500000Y-74675000D03*
%TO.P,R24,1*%
%TO.N,Net-(C12-Pad1)*%
X108500000Y-76325000D03*
%TD*%
%TO.P,R23,2*%
%TO.N,Net-(C12-Pad1)*%
X108500000Y-78040000D03*
%TO.P,R23,1*%
%TO.N,Net-(U12-center)*%
X108500000Y-79690000D03*
%TD*%
%TO.P,R22,2*%
%TO.N,/input10/OUT*%
X106500000Y-74675000D03*
%TO.P,R22,1*%
%TO.N,Net-(C11-Pad1)*%
X106500000Y-76325000D03*
%TD*%
%TO.P,R21,2*%
%TO.N,Net-(C11-Pad1)*%
X106500000Y-78040000D03*
%TO.P,R21,1*%
%TO.N,Net-(U11-center)*%
X106500000Y-79690000D03*
%TD*%
%TO.P,R20,2*%
%TO.N,/input9/OUT*%
X104500000Y-74675000D03*
%TO.P,R20,1*%
%TO.N,Net-(C10-Pad1)*%
X104500000Y-76325000D03*
%TD*%
%TO.P,R19,2*%
%TO.N,Net-(C10-Pad1)*%
X104500000Y-78000000D03*
%TO.P,R19,1*%
%TO.N,Net-(U10-center)*%
X104500000Y-79650000D03*
%TD*%
%TO.P,R18,2*%
%TO.N,/input8/OUT*%
X102500000Y-74625000D03*
%TO.P,R18,1*%
%TO.N,Net-(C9-Pad1)*%
X102500000Y-76275000D03*
%TD*%
%TO.P,R17,2*%
%TO.N,Net-(C9-Pad1)*%
X102500000Y-78000000D03*
%TO.P,R17,1*%
%TO.N,Net-(U9-center)*%
X102500000Y-79650000D03*
%TD*%
D12*
%TO.P,J1,B18,GND*%
%TO.N,/input8/OUT*%
X101399999Y-66999999D03*
D13*
%TO.P,J1,B17,~{PRSNT2}*%
%TO.N,GND*%
X102399999Y-67549999D03*
D12*
%TO.P,J1,B16,GND*%
%TO.N,/input9/OUT*%
X103399999Y-66999999D03*
%TO.P,J1,B15,PETn0*%
%TO.N,GND*%
X104399999Y-66999999D03*
%TO.P,J1,B14,PETp0*%
%TO.N,/input10/OUT*%
X105399999Y-66999999D03*
%TO.P,J1,B13,GND*%
%TO.N,GND*%
X106399999Y-66999999D03*
%TO.P,J1,B12,RSVD*%
%TO.N,/input11/OUT*%
X107399999Y-66999999D03*
%TO.P,J1,B11,~{WAKE}*%
%TO.N,GND*%
X110399999Y-66999999D03*
%TO.P,J1,B10,3.3Vaux*%
%TO.N,/input12/OUT*%
X111399999Y-66999999D03*
%TO.P,J1,B9,JTAG1*%
%TO.N,GND*%
X112399999Y-66999999D03*
%TO.P,J1,B8,+3.3V*%
%TO.N,/input13/OUT*%
X113399999Y-66999999D03*
%TO.P,J1,B7,GND*%
%TO.N,GND*%
X114399999Y-66999999D03*
%TO.P,J1,B6,SMDAT*%
%TO.N,/input14/OUT*%
X115399999Y-66999999D03*
%TO.P,J1,B5,SMCLK*%
%TO.N,GND*%
X116399999Y-66999999D03*
%TO.P,J1,B4,GND*%
%TO.N,/input15/OUT*%
X117399999Y-66999999D03*
%TO.P,J1,B3,+12V*%
%TO.N,GND*%
X118399999Y-66999999D03*
%TO.P,J1,B2,+12V*%
%TO.N,unconnected-(J1-+12V)*%
X119399999Y-66999999D03*
%TO.P,J1,B1,+12V*%
%TO.N,GND*%
X120399999Y-66999999D03*
%TD*%
D14*
%TO.P,C16,2*%
%TO.N,/input15/OUT*%
X119000000Y-74650000D03*
%TO.P,C16,1*%
%TO.N,Net-(C16-Pad1)*%
X119000000Y-76200000D03*
%TD*%
%TO.P,C15,1*%
%TO.N,Net-(C15-Pad1)*%
X117000000Y-76275000D03*
%TO.P,C15,2*%
%TO.N,/input14/OUT*%
X117000000Y-74725000D03*
%TD*%
%TO.P,C14,2*%
%TO.N,/input13/OUT*%
X115000000Y-74675000D03*
%TO.P,C14,1*%
%TO.N,Net-(C14-Pad1)*%
X115000000Y-76225000D03*
%TD*%
%TO.P,C13,2*%
%TO.N,/input12/OUT*%
X113000000Y-74725000D03*
%TO.P,C13,1*%
%TO.N,Net-(C13-Pad1)*%
X113000000Y-76275000D03*
%TD*%
%TO.P,C12,2*%
%TO.N,/input11/OUT*%
X108500000Y-74725000D03*
%TO.P,C12,1*%
%TO.N,Net-(C12-Pad1)*%
X108500000Y-76275000D03*
%TD*%
%TO.P,C11,2*%
%TO.N,/input10/OUT*%
X106500000Y-74725000D03*
%TO.P,C11,1*%
%TO.N,Net-(C11-Pad1)*%
X106500000Y-76275000D03*
%TD*%
%TO.P,C10,2*%
%TO.N,/input9/OUT*%
X104500000Y-74725000D03*
%TO.P,C10,1*%
%TO.N,Net-(C10-Pad1)*%
X104500000Y-76275000D03*
%TD*%
%TO.P,C9,2*%
%TO.N,/input8/OUT*%
X102500000Y-74725000D03*
%TO.P,C9,1*%
%TO.N,Net-(C9-Pad1)*%
X102500000Y-76275000D03*
%TD*%
D15*
%TO.N,GND*%
X119000000Y-85000000D03*
X117000000Y-85000000D03*
X115000000Y-85000000D03*
X113000000Y-85000000D03*
X108500000Y-85250000D03*
X106500000Y-85250000D03*
X104500000Y-85250000D03*
X102500000Y-85250000D03*
X120250000Y-70250000D03*
X118500000Y-70250000D03*
X116400000Y-70150000D03*
X114500000Y-70250000D03*
X112500000Y-70250000D03*
X110500000Y-70250000D03*
X106500000Y-70500000D03*
X104500000Y-70500000D03*
X102500000Y-70500000D03*
%TD*%
D16*
%TO.N,/input15/OUT*%
X117400000Y-67000000D02*
X117400000Y-70600000D01*
X117400000Y-70600000D02*
X119000000Y-72200000D01*
X119000000Y-72200000D02*
X119000000Y-74650000D01*
%TO.N,/input14/OUT*%
X115400000Y-71200000D02*
X117000000Y-72800000D01*
X115400000Y-67000000D02*
X115400000Y-71200000D01*
X117000000Y-72800000D02*
X117000000Y-74675000D01*
%TO.N,/input13/OUT*%
X113400000Y-72000000D02*
X115000000Y-73600000D01*
X113400000Y-67000000D02*
X113400000Y-72000000D01*
X115000000Y-73600000D02*
X115000000Y-74675000D01*
%TO.N,/input12/OUT*%
X111400000Y-67000000D02*
X111400000Y-73075000D01*
X111400000Y-73075000D02*
X113000000Y-74675000D01*
%TO.N,GND*%
X119000000Y-87080000D02*
X119000000Y-85000000D01*
X117000000Y-87080000D02*
X117000000Y-85000000D01*
X115000000Y-87080000D02*
X115000000Y-85000000D01*
X113000000Y-87080000D02*
X113000000Y-85000000D01*
%TO.N,Net-(C16-Pad1)*%
X119000000Y-76200000D02*
X119000000Y-78000000D01*
%TO.N,Net-(C15-Pad1)*%
X117000000Y-76275000D02*
X117000000Y-78000000D01*
%TO.N,Net-(C14-Pad1)*%
X115000000Y-76225000D02*
X115000000Y-78000000D01*
%TO.N,Net-(C13-Pad1)*%
X113000000Y-76275000D02*
X113000000Y-78000000D01*
%TO.N,Net-(U16-center)*%
X119000000Y-79650000D02*
X119000000Y-82000000D01*
%TO.N,Net-(U15-center)*%
X117000000Y-79650000D02*
X117000000Y-82000000D01*
%TO.N,Net-(U14-center)*%
X115000000Y-79650000D02*
X115000000Y-82000000D01*
%TO.N,Net-(U13-center)*%
X113000000Y-79650000D02*
X113000000Y-82000000D01*
%TO.N,GND*%
X108500000Y-87080000D02*
X108500000Y-85250000D01*
X106500000Y-87080000D02*
X106500000Y-85250000D01*
X104500000Y-87120000D02*
X104500000Y-85250000D01*
X102500000Y-87120000D02*
X102500000Y-85250000D01*
X120250000Y-70250000D02*
X120400000Y-70100000D01*
X120400000Y-70100000D02*
X120400000Y-67000000D01*
X118400000Y-70150000D02*
X118500000Y-70250000D01*
X118400000Y-67000000D02*
X118400000Y-70150000D01*
X116400000Y-67000000D02*
X116400000Y-70150000D01*
X116500000Y-70250000D02*
X116400000Y-70150000D01*
X114400000Y-70150000D02*
X114500000Y-70250000D01*
X114400000Y-67000000D02*
X114400000Y-70150000D01*
X112400000Y-70150000D02*
X112500000Y-70250000D01*
X112400000Y-67000000D02*
X112400000Y-70150000D01*
X110400000Y-70150000D02*
X110500000Y-70250000D01*
X110400000Y-67000000D02*
X110400000Y-70150000D01*
X106400000Y-70400000D02*
X106500000Y-70500000D01*
X106400000Y-67000000D02*
X106400000Y-70400000D01*
X104400000Y-70400000D02*
X104500000Y-70500000D01*
X104400000Y-67000000D02*
X104400000Y-70400000D01*
X102400000Y-70400000D02*
X102500000Y-70500000D01*
X102400000Y-67550000D02*
X102400000Y-70400000D01*
%TO.N,Net-(U12-center)*%
X108500000Y-79690000D02*
X108500000Y-82000000D01*
%TO.N,Net-(C12-Pad1)*%
X108500000Y-76325000D02*
X108500000Y-78040000D01*
%TO.N,Net-(U11-center)*%
X106500000Y-79690000D02*
X106500000Y-82000000D01*
%TO.N,Net-(C11-Pad1)*%
X106500000Y-76275000D02*
X106500000Y-78040000D01*
%TO.N,Net-(U10-center)*%
X104500000Y-79650000D02*
X104500000Y-82040000D01*
%TO.N,Net-(C10-Pad1)*%
X104500000Y-76275000D02*
X104500000Y-78000000D01*
%TO.N,Net-(U9-center)*%
X102500000Y-79650000D02*
X102500000Y-82040000D01*
%TO.N,Net-(C9-Pad1)*%
X102500000Y-76275000D02*
X102500000Y-78000000D01*
%TO.N,/input11/OUT*%
X107400000Y-67000000D02*
X107400000Y-72020000D01*
X107400000Y-72020000D02*
X108500000Y-73120000D01*
X108500000Y-73120000D02*
X108500000Y-74675000D01*
%TO.N,/input10/OUT*%
X105400000Y-67000000D02*
X105400000Y-72000000D01*
X105400000Y-72000000D02*
X106500000Y-73100000D01*
X106500000Y-73100000D02*
X106500000Y-74725000D01*
%TO.N,/input9/OUT*%
X103400000Y-67000000D02*
X103400000Y-72120000D01*
X103400000Y-72120000D02*
X104500000Y-73220000D01*
X104500000Y-73220000D02*
X104500000Y-74675000D01*
%TO.N,/input8/OUT*%
X101400000Y-67000000D02*
X101400000Y-71490000D01*
X101400000Y-71490000D02*
X102500000Y-72590000D01*
X102500000Y-72590000D02*
X102500000Y-74625000D01*
%TD*%
M02*
